HIERARCHY
ROOT Hips
{
  OFFSET 46.6258 85.6497 -6.46669
  CHANNELS 6 Xposition Yposition Zposition Zrotation Xrotation Yrotation
  JOINT spine
  {
    OFFSET 0 6.84637 0.3937
    CHANNELS 3 Zrotation Xrotation Yrotation
    JOINT spine1
    {
      OFFSET 0 9.49621 0
      CHANNELS 3 Zrotation Xrotation Yrotation
      JOINT spine2
      {
        OFFSET 0 9.09909 0
        CHANNELS 3 Zrotation Xrotation Yrotation
        JOINT Neck
        {
          OFFSET 0 23.3612 1.11378
          CHANNELS 3 Zrotation Xrotation Yrotation
          JOINT Head
          {
            OFFSET 0 7.05802 0
            CHANNELS 3 Zrotation Xrotation Yrotation
            End Site
            {
              OFFSET 0 17.0844 -5.63419
            }
          }
        }
        JOINT RightShoulder
        {
          OFFSET -3.83136 9.82631 -0.533491
          CHANNELS 3 Zrotation Xrotation Yrotation
          JOINT RightArm
          {
            OFFSET 0 12.8881 0
            CHANNELS 3 Zrotation Xrotation Yrotation
            JOINT RightArmRoll
            {
              OFFSET 0 6.50617 0
              CHANNELS 3 Zrotation Xrotation Yrotation
              JOINT RightForeArm
              {
                OFFSET 0 18.9501 0
                CHANNELS 3 Zrotation Xrotation Yrotation
                JOINT RightForeArmRoll
                {
                  OFFSET 0 7.30092 0
                  CHANNELS 3 Zrotation Xrotation Yrotation
                  JOINT RightHand
                  {
                    OFFSET 0 14.6514 0
                    CHANNELS 3 Zrotation Xrotation Yrotation
                    End Site
                    {
                      OFFSET 0 0 0
                    }
                  }
                }
              }
            }
          }
        }
        JOINT LeftShoulder
        {
          OFFSET 3.83136 9.82631 -0.533491
          CHANNELS 3 Zrotation Xrotation Yrotation
          JOINT LeftArm
          {
            OFFSET 0 12.8881 0
            CHANNELS 3 Zrotation Xrotation Yrotation
            JOINT LeftArmRoll
            {
              OFFSET 0 6.50617 0
              CHANNELS 3 Zrotation Xrotation Yrotation
              JOINT LeftForeArm
              {
                OFFSET 0 18.9501 0
                CHANNELS 3 Zrotation Xrotation Yrotation
                JOINT LeftForeArmRoll
                {
                  OFFSET 0 7.30092 0
                  CHANNELS 3 Zrotation Xrotation Yrotation
                  JOINT LeftHand
                  {
                    OFFSET 0 14.6514 0
                    CHANNELS 3 Zrotation Xrotation Yrotation
                    End Site
                    {
                      OFFSET 0 0 0
                    }
                  }
                }
              }
            }
          }
        }
      }
    }
  }
  JOINT RightUpLeg
  {
    OFFSET -6.06837 -1.11278 -0.933477
    CHANNELS 3 Zrotation Xrotation Yrotation
    JOINT RightUpLegRoll
    {
      OFFSET 0 17.1796 0
      CHANNELS 3 Zrotation Xrotation Yrotation
      JOINT RightLeg
      {
        OFFSET 0 -21.2743 0
        CHANNELS 3 Zrotation Xrotation Yrotation
        JOINT RightLegRoll
        {
          OFFSET 0 21.3439 0
          CHANNELS 3 Zrotation Xrotation Yrotation
          JOINT RightFoot
          {
            OFFSET 0 17.7652 0
            CHANNELS 3 Zrotation Xrotation Yrotation
            JOINT RightToeBase
            {
              OFFSET 0 14.8508 0
              CHANNELS 3 Zrotation Xrotation Yrotation
              End Site
              {
                OFFSET 0.0062947 7.19213 -0.829005
              }
            }
          }
        }
      }
    }
  }
  JOINT LeftUpLeg
  {
    OFFSET 6.06837 -1.11278 -0.933477
    CHANNELS 3 Zrotation Xrotation Yrotation
    JOINT LeftUpLegRoll
    {
      OFFSET 0 17.1797 0
      CHANNELS 3 Zrotation Xrotation Yrotation
      JOINT LeftLeg
      {
        OFFSET 0 21.2742 0
        CHANNELS 3 Zrotation Xrotation Yrotation
        JOINT LeftLegRoll
        {
          OFFSET 0 21.5412 0
          CHANNELS 3 Zrotation Xrotation Yrotation
          JOINT LeftFoot
          {
            OFFSET 0 17.5679 0
            CHANNELS 3 Zrotation Xrotation Yrotation
            JOINT LeftToeBase
            {
              OFFSET 0 14.8508 0
              CHANNELS 3 Zrotation Xrotation Yrotation
              End Site
              {
                OFFSET -0.0282102 7.19213 -0.829005
              }
            }
          }
        }
      }
    }
  }
}
MOTION
Frames: 11
Frame Time: 0.00208333
49.8935 82.7385 -2.47106 2.13895 9.60319 7.0906 1.16505 -2.08067 0.946688 2.35211 -0.141022 1.78413 2.33144 1.50293 1.74521 -27.486 -17.9391 -9.80958 22.0834 7.92202 -10.1094 32.7796 -7.08239 -3.16383 95.9419 63.7366 -12.9293 -6.97751e-007 3.58896e-007 5.62021e-006 15.8223 30.3596 -3.70219 -5.22453e-006 6.41446e-007 -3.01505 8.02898 -4.95148 0.697688 -56.5403 -10.4528 6.49899 -65.2625 62.6226 7.9319 6.85624e-006 2.42813e-007 -2.23123e-006 -24.1754 54.8312 12.5133 7.40546e-006 3.06376e-006 3.01109 -8.02891 -4.95144 -0.69769 175.995 32.4838 3.45827 180 7.01581e-015 179.084 167.589 41.9118 -174.712 2.07163e-006 1.72054e-006 0.458235 -59.6237 79.7895 51.5881 8.13457 25.2331 -3.48603 177.519 31.8062 2.88402 4.54188e-006 -4.6773e-006 -1.05396 -5.8126 -43.5155 -1.88458 6.4928e-006 -4.97459e-006 -0.706555 48.6101 80.6342 -48.332 -8.27201 27.2614 3.54595 
49.8575 82.7921 -2.48975 2.1023 9.61467 7.10081 1.16079 -2.09833 0.951126 2.34397 -0.176293 1.79377 2.32316 1.46766 1.75498 -27.3162 -17.9376 -9.82065 21.9451 7.91553 -10.1201 32.5817 -7.12518 -3.19528 95.2447 63.8317 -12.5225 -6.97751e-007 3.58896e-007 5.62021e-006 15.7696 30.5023 -3.70281 -5.22453e-006 6.41446e-007 -3.01504 8.02898 -4.95148 0.697688 -56.1269 -10.4187 6.47886 -64.2382 62.6447 6.94365 6.85624e-006 2.42813e-007 -2.23123e-006 -24.0979 54.6508 12.4242 7.40546e-006 3.06376e-006 3.01109 -8.02891 -4.95144 -0.69769 176.011 32.4681 3.46304 180 -7.01582e-015 179.085 167.544 41.8014 -174.706 2.07163e-006 1.72054e-006 0.449888 -59.3184 79.738 51.2444 8.13458 25.2331 -3.48605 177.582 31.781 2.82863 4.54188e-006 -4.6773e-006 -1.05271 -5.80342 -43.4138 -1.87005 6.4928e-006 -4.97459e-006 -0.704318 48.5521 80.6273 -48.2798 -8.26823 27.21 3.54425 
49.8536 82.7765 -2.51398 2.06443 9.63077 7.11171 1.15631 -2.11668 0.954509 2.33539 -0.212967 1.80134 2.31446 1.43099 1.76267 -27.1507 -17.9512 -9.83184 21.8142 7.9249 -10.1301 32.3933 -7.16629 -3.22582 94.5492 63.9133 -12.1197 -6.97751e-007 3.58896e-007 5.62021e-006 15.7188 30.6481 -3.70398 -5.22453e-006 6.41446e-007 -3.01503 8.02898 -4.95148 0.697688 -55.7206 -10.3901 6.4622 -63.2423 62.6456 6.01379 6.85624e-006 2.42813e-007 -2.23123e-006 -24.0278 54.4877 12.3421 7.40546e-006 3.06376e-006 3.01108 -8.02891 -4.95144 -0.69769 176.04 32.4414 3.45575 180 7.01581e-015 179.084 167.523 41.6644 -174.716 2.07163e-006 1.72054e-006 0.443868 -58.9526 79.6801 50.8487 8.13459 25.233 -3.48607 177.644 31.7417 2.77601 4.54188e-006 -4.6773e-006 -1.05161 -5.78718 -43.2776 -1.85035 6.4928e-006 -4.97459e-006 -0.702079 48.4389 80.6123 -48.1742 -8.26417 27.1545 3.54244 
49.8086 82.8415 -2.53288 2.02551 9.6517 7.12324 1.15156 -2.1357 0.956676 2.32623 -0.251 1.8065 2.30521 1.39296 1.76797 -26.991 -17.9815 -9.84308 21.6924 7.9521 -10.1393 32.2154 -7.20536 -3.25515 93.8585 63.9811 -11.7235 -6.97751e-007 3.58896e-007 5.62021e-006 15.6703 30.7974 -3.70583 -5.22453e-006 6.41446e-007 -3.01503 8.02898 -4.95148 0.697688 -55.3228 -10.3677 6.44954 -62.2796 62.6257 5.15417 6.85624e-006 2.42813e-007 -2.23123e-006 -23.966 54.3455 12.2679 7.40546e-006 3.06376e-006 3.01107 -8.02891 -4.95144 -0.69769 176.082 32.4025 3.43513 180 7.01581e-015 179.08 167.531 41.4983 -174.744 2.07163e-006 1.72054e-006 0.440493 -58.5224 79.615 50.3982 8.1346 25.233 -3.48609 177.704 31.6864 2.7267 4.54188e-006 -4.6773e-006 -1.05067 -5.76301 -43.1031 -1.82493 6.4928e-006 -4.97459e-006 -0.699844 48.2652 80.5885 -48.0103 -8.25979 27.0945 3.54049 
49.7901 82.8162 -2.58875 1.98248 9.67978 7.13713 1.1465 -2.15631 0.958334 2.31648 -0.292244 1.8107 2.29538 1.35172 1.77232 -26.8243 -18.0278 -9.85492 21.5693 7.99667 -10.1484 32.051 -7.24447 -3.28568 93.1512 64.0318 -11.3245 -6.97751e-007 3.58896e-007 5.62021e-006 15.6253 30.9514 -3.70835 -5.22453e-006 6.41446e-007 -3.01502 8.02898 -4.95148 0.697688 -54.9196 -10.3498 6.43945 -61.3563 62.5915 4.35265 6.85624e-006 2.42813e-007 -2.23123e-006 -23.9106 54.2131 12.198 7.40546e-006 3.06376e-006 3.01106 -8.02891 -4.95144 -0.69769 176.14 32.3576 3.40212 180 7.01579e-015 179.074 167.563 41.3094 -174.789 2.07163e-006 1.72054e-006 0.439911 -58.0416 79.5441 49.9053 8.13461 25.233 -3.4861 177.766 31.6216 2.67768 4.54188e-006 -4.6773e-006 -1.04992 -5.73247 -42.8978 -1.79414 6.4928e-006 -4.97459e-006 -0.697823 48.0587 80.5597 -47.8148 -8.25494 27.0278 3.5383 
49.7472 82.9068 -2.58772 1.93289 9.71648 7.1547 1.14118 -2.17923 0.960196 2.30624 -0.338108 1.81537 2.28505 1.30586 1.77715 -26.6394 -18.0873 -9.86781 21.4352 8.05598 -10.1581 31.9013 -7.2856 -3.31952 92.4095 64.0631 -10.9129 -6.97751e-007 3.58896e-007 5.62021e-006 15.585 31.1104 -3.71137 -5.22453e-006 6.41446e-007 -3.01502 8.02898 -4.95148 0.697688 -54.4992 -10.334 6.4303 -60.4733 62.5484 3.58825 6.85624e-006 2.42813e-007 -2.23123e-006 -23.8591 54.0779 12.1283 7.40546e-006 3.06376e-006 3.01105 -8.02891 -4.95144 -0.69769 176.213 32.3131 3.3589 180 7.01577e-015 179.065 167.614 41.1051 -174.848 2.07163e-006 1.72054e-006 0.441863 -57.5263 79.4687 49.3844 8.13463 25.233 -3.48612 177.831 31.5544 2.6261 4.54188e-006 -4.6773e-006 -1.04935 -5.69783 -42.6714 -1.75898 6.4928e-006 -4.97459e-006 -0.696165 47.846 80.5294 -47.6127 -8.24953 26.9532 3.53584 
49.7641 82.9214 -2.59157 1.87779 9.76071 7.17534 1.13566 -2.20411 0.962096 2.29561 -0.387884 1.82018 2.27433 1.25609 1.78212 -26.4403 -18.1592 -9.88161 21.293 8.12877 -10.1681 31.7644 -7.32816 -3.35593 91.6413 64.0767 -10.492 -6.97751e-007 3.58896e-007 5.62021e-006 15.5484 31.2734 -3.71479 -5.22453e-006 6.41446e-007 -3.01501 8.02898 -4.95148 0.697688 -54.0662 -10.3205 6.42226 -59.6271 62.4957 2.85947 6.85624e-006 2.42813e-007 -2.23123e-006 -23.8112 53.9416 12.0593 7.40546e-006 3.06376e-006 3.01105 -8.02891 -4.95144 -0.69769 176.299 32.2675 3.30607 180 7.01575e-015 179.053 167.683 40.8846 -174.92 2.07163e-006 1.72054e-006 0.446055 -56.9773 79.3885 48.8358 8.13464 25.233 -3.48614 177.9 31.4833 2.57279 4.54188e-006 -4.6773e-006 -1.04894 -5.65936 -42.4236 -1.71991 6.4928e-006 -4.97459e-006 -0.694779 47.621 80.4968 -47.398 -8.24366 26.872 3.53315 
49.6959 83.0122 -2.5936 1.81826 9.81136 7.1984 1.12999 -2.23058 0.963871 2.2847 -0.440863 1.82479 2.26333 1.20312 1.78688 -26.2311 -18.2424 -9.89615 21.1456 8.21379 -10.1784 31.6381 -7.3716 -3.39415 90.8546 64.074 -10.065 -6.97751e-007 3.58896e-007 5.62021e-006 15.515 31.4398 -3.71852 -5.22453e-006 6.41446e-007 -3.015 8.02898 -4.95148 0.697688 -53.625 -10.3095 6.41553 -58.8142 62.4322 2.16488 6.85624e-006 2.42813e-007 -2.23123e-006 -23.7665 53.806 11.9914 7.40546e-006 3.06376e-006 3.01104 -8.02891 -4.95144 -0.69769 176.396 32.2192 3.24423 180 7.01572e-015 179.04 167.768 40.6471 -175.004 2.07163e-006 1.72054e-006 0.452194 -56.395 79.303 48.2599 8.13465 25.233 -3.48616 177.971 31.407 2.51858 4.54188e-006 -4.6773e-006 -1.04867 -5.61731 -42.1539 -1.67741 6.4928e-006 -4.97459e-006 -0.693576 47.3776 80.4606 -47.1647 -8.23743 26.7854 3.5303 
49.6971 83.0168 -2.63421 1.75538 9.86736 7.22324 1.12421 -2.2583 0.965356 2.2736 -0.496338 1.82884 2.25214 1.14765 1.7911 -26.0157 -18.336 -9.9113 20.9959 8.30978 -10.1887 31.5206 -7.41532 -3.43344 90.0571 64.0565 -9.63505 -6.97751e-007 3.58896e-007 5.62021e-006 15.484 31.6086 -3.72247 -5.22453e-006 6.41446e-007 -3.015 8.02898 -4.95148 0.697688 -53.18 -10.3011 6.41029 -58.0313 62.357 1.5031 6.85624e-006 2.42813e-007 -2.23123e-006 -23.7248 53.6729 11.925 7.40546e-006 3.06376e-006 3.01103 -8.02891 -4.95144 -0.69769 176.504 32.1665 3.17399 180 7.01569e-015 179.025 167.869 40.3919 -175.098 2.07163e-006 1.72054e-006 0.459987 -55.7804 79.2118 47.6572 8.13466 25.233 -3.48618 178.042 31.3244 2.46432 4.54188e-006 -4.6773e-006 -1.04851 -5.57194 -41.8622 -1.63191 6.4928e-006 -4.97459e-006 -0.692468 47.11 80.42 -46.907 -8.23093 26.6949 3.52732 
49.658 83.1181 -2.59053 1.69023 9.92762 7.24924 1.11838 -2.2869 0.966388 2.2624 -0.553599 1.83201 2.24086 1.09039 1.79443 -25.7984 -18.4392 -9.92691 20.8469 8.41549 -10.199 31.4098 -7.45878 -3.47307 89.2566 64.0259 -9.20508 -6.97751e-007 3.58896e-007 5.62021e-006 15.4547 31.779 -3.72656 -5.22453e-006 6.41446e-007 -3.01499 8.02898 -4.95148 0.697688 -52.7358 -10.2955 6.40672 -57.2751 62.2689 0.872795 6.85624e-006 2.42813e-007 -2.23123e-006 -23.6857 53.5441 11.8606 7.40546e-006 3.06376e-006 3.01102 -8.02891 -4.95144 -0.69769 176.62 32.108 3.09595 180 7.01566e-015 179.008 167.982 40.1184 -175.201 2.07163e-006 1.72054e-006 0.469142 -55.1345 79.1144 47.0285 8.13467 25.233 -3.48619 178.114 31.2339 2.41083 4.54188e-006 -4.6773e-006 -1.04846 -5.52351 -41.548 -1.5839 6.4928e-006 -4.97459e-006 -0.691364 46.8127 80.3738 -46.6196 -8.22425 26.6017 3.52427 
49.6298 83.1336 -2.63531 1.62389 9.99103 7.27576 1.11256 -2.31604 0.966803 2.25119 -0.61194 1.83396 2.22958 1.03205 1.79653 -25.583 -18.5509 -9.94281 20.7014 8.52965 -10.2089 31.3039 -7.50139 -3.51228 88.4607 63.9836 -8.77802 -6.97751e-007 3.58896e-007 5.62021e-006 15.4263 31.9501 -3.73067 -5.22453e-006 6.41446e-007 -3.01499 8.02898 -4.95148 0.697688 -52.2969 -10.2929 6.40501 -56.5422 62.1667 0.272689 6.85624e-006 2.42813e-007 -2.23123e-006 -23.6489 53.4213 11.7984 7.40546e-006 3.06376e-006 3.01101 -8.02891 -4.95144 -0.69769 176.743 32.0421 3.01075 180 7.01562e-015 178.991 168.108 39.8256 -175.312 2.07163e-006 1.72054e-006 0.479364 -54.4583 79.0103 46.3746 8.13469 25.233 -3.48621 178.184 31.1344 2.35896 4.54188e-006 -4.6773e-006 -1.04847 -5.47227 -41.2112 -1.53381 6.4928e-006 -4.97459e-006 -0.690177 46.4804 80.3209 -46.2972 -8.21749 26.5071 3.52121 
